<svg xmlns="http://www.w3.org/2000/svg" xmlns:xlink="http://www.w3.org/1999/xlink" version="1.1" x="0px" y="0px" viewBox="0 0 128 160" style="enable-background:new 0 0 128 128;" xml:space="preserve"><path d="M100.1,38c0.9,0,1.6-0.3,2.2-0.8c1.6-1.6,0.6-5.3-2.2-8.2c-1.9-1.9-4.2-3-6-3c-0.9,0-1.6,0.3-2.2,0.8  c-1.6,1.6-0.6,5.3,2.2,8.2C96,36.9,98.3,38,100.1,38z M93.2,28.2c0.2-0.2,0.5-0.2,0.7-0.2c1,0,2.8,0.6,4.6,2.4  c1.1,1.1,2,2.5,2.3,3.7c0.2,0.8,0.2,1.4-0.1,1.7c-0.2,0.2-0.5,0.2-0.7,0.2c-1,0-2.8-0.6-4.6-2.4C93.1,31.2,92.7,28.8,93.2,28.2z"/><path d="M65.7,16.1C65.3,16,65,16,64.7,16c-2.2,0-4.6,1.9-5.9,4.7c-1.5,3.2-0.8,6.4,1.6,7.1c0.3,0.1,0.6,0.1,1,0.1  c2.2,0,4.6-1.9,5.9-4.7C68.7,20.1,68,16.9,65.7,16.1z M65.4,22.5c-1,2.2-2.9,3.5-4.1,3.5c-0.1,0-0.3,0-0.4-0.1  c-0.2-0.1-0.5-0.2-0.7-0.7c-0.3-0.7-0.4-2.1,0.4-3.7c1-2.2,2.9-3.5,4.1-3.5c0.1,0,0.3,0,0.4,0.1c0.2,0.1,0.5,0.2,0.7,0.7  C66.1,19.4,66.2,20.8,65.4,22.5z"/><path d="M104.6,70c1.2,0,2.5-0.2,3.9-0.8c3.8-1.5,6.2-4.6,5.3-6.9c-0.5-1.5-2.3-2.3-4.5-2.3c-1.2,0-2.5,0.2-3.9,0.8  c-3.8,1.5-6.2,4.6-5.3,6.9C100.7,69.2,102.5,70,104.6,70z M106.2,62.6c1.1-0.4,2.1-0.6,3.1-0.6c1.3,0,2.4,0.4,2.6,1  c0.3,1-1.2,3.2-4.2,4.4c-1.1,0.4-2.1,0.6-3.1,0.6c-1.3,0-2.4-0.4-2.6-1C101.7,66,103.2,63.8,106.2,62.6z"/><path d="M127.3,53l-11-31.1c-1.5-4.1-6.1-8.7-10.2-10.2L75,0.7c-1.1-0.4-2.4-0.6-3.7-0.6c-3.5,0-7.2,1.3-9.5,3.6L37.7,27.8  c-1.6,1.6-2.8,3.9-3.4,6.4l0.8-0.4c1.2-0.6,2.6-1,4.1-1.3c0.4-0.7,0.8-1.3,1.3-1.8L64.7,6.5c0.9-0.9,2.2-1.6,3.6-2c0,0,0,0,0,0  l11.4,40.6l-1,1l3.8,1.8c0.4,0.2,0.7,0.4,1.1,0.6l39.8,11.4c-0.4,1.3-1.1,2.6-1.9,3.4L97.3,87.5c-1.2,1.2-3.2,2.1-5.3,2.5v4  c3.1-0.4,6.2-1.8,8.2-3.7l24.2-24.2C127.5,63,128.8,57.1,127.3,53z M72.4,4.1c0.5,0.1,1,0.2,1.4,0.3l31.1,11c3,1.1,6.7,4.8,7.8,7.8  l11,31.1c0.2,0.5,0.3,1,0.3,1.6L83.7,44.4L72.4,4.1z"/><path d="M44,60.7c3.9,0,7-1.8,7-4c0-2.2-3.1-4-7-4s-7,1.8-7,4C37,58.9,40.1,60.7,44,60.7z M44,54.7c3.2,0,5,1.4,5,2c0,0.6-1.8,2-5,2  s-5-1.4-5-2C39,56.1,40.8,54.7,44,54.7z"/><path d="M11.6,68c-0.5,0-0.9,0.1-1.4,0.3c-2.3,1.1-2.9,5.1-1.4,8.8c1.3,3,3.5,4.9,5.6,4.9c0.5,0,0.9-0.1,1.4-0.3  c2.3-1.1,2.9-5.1,1.4-8.8C15.9,69.9,13.6,68,11.6,68z M14.9,79.9C14.8,80,14.6,80,14.4,80c-1.1,0-2.7-1.3-3.7-3.7  c-1.3-3-0.6-5.7,0.4-6.2c0.1-0.1,0.3-0.1,0.5-0.1c1.1,0,2.7,1.3,3.7,3.7C16.6,76.7,15.9,79.4,14.9,79.9z"/><path d="M11.6,90c-0.5,0-0.9,0.1-1.4,0.3c-2.3,1.1-2.9,5.1-1.4,8.8c1.3,3,3.5,4.9,5.6,4.9c0.5,0,0.9-0.1,1.4-0.3  c2.3-1.1,2.9-5.1,1.4-8.8C15.9,91.9,13.6,90,11.6,90z M14.9,101.9c-0.1,0.1-0.3,0.1-0.5,0.1c-1.1,0-2.7-1.3-3.7-3.7  c-1.3-3-0.6-5.7,0.4-6.2c0.1-0.1,0.3-0.1,0.5-0.1c1.1,0,2.7,1.3,3.7,3.7C16.6,98.7,15.9,101.4,14.9,101.9z"/><path d="M31.6,79c-0.5,0-0.9,0.1-1.4,0.3c-2.3,1.1-2.9,5.1-1.4,8.8c1.3,3,3.5,4.9,5.6,4.9c0.5,0,0.9-0.1,1.4-0.3  c2.3-1.1,2.9-5.1,1.4-8.8C35.9,80.9,33.6,79,31.6,79z M34.9,90.9C34.8,91,34.6,91,34.4,91c-1.1,0-2.7-1.3-3.7-3.7  c-1.3-3-0.6-5.7,0.4-6.2c0.1-0.1,0.3-0.1,0.5-0.1c1.1,0,2.7,1.3,3.7,3.7C36.6,87.7,35.9,90.4,34.9,90.9z"/><path d="M31.6,101c-0.5,0-0.9,0.1-1.4,0.3c-2.3,1.1-2.9,5.1-1.4,8.8c1.3,3,3.5,4.9,5.6,4.9c0.5,0,0.9-0.1,1.4-0.3  c2.3-1.1,2.9-5.1,1.4-8.8C35.9,102.9,33.6,101,31.6,101z M34.9,112.9c-0.1,0.1-0.3,0.1-0.5,0.1c-1.1,0-2.7-1.3-3.7-3.7  c-1.3-3-0.6-5.7,0.4-6.2c0.1-0.1,0.3-0.1,0.5-0.1c1.1,0,2.7,1.3,3.7,3.7C36.6,109.7,35.9,112.4,34.9,112.9z"/><path d="M77.8,68.3c-0.4-0.2-0.9-0.3-1.4-0.3c-2,0-4.3,1.9-5.6,4.9c-1.5,3.7-0.9,7.6,1.4,8.8c0.4,0.2,0.9,0.3,1.4,0.3  c2,0,4.3-1.9,5.6-4.9C80.7,73.4,80.1,69.5,77.8,68.3z M77.3,76.3c-1,2.4-2.7,3.7-3.7,3.7c-0.2,0-0.3,0-0.5-0.1  c-1-0.5-1.7-3.2-0.4-6.2c1-2.4,2.7-3.7,3.7-3.7c0.2,0,0.3,0,0.5,0.1C77.9,70.6,78.6,73.3,77.3,76.3z"/><path d="M77.8,90.3c-0.4-0.2-0.9-0.3-1.4-0.3c-2,0-4.3,1.9-5.6,4.9c-1.5,3.7-0.9,7.6,1.4,8.8c0.4,0.2,0.9,0.3,1.4,0.3  c2,0,4.3-1.9,5.6-4.9C80.7,95.4,80.1,91.5,77.8,90.3z M77.3,98.3c-1,2.4-2.7,3.7-3.7,3.7c-0.2,0-0.3,0-0.5-0.1  c-1-0.5-1.7-3.2-0.4-6.2c1-2.4,2.7-3.7,3.7-3.7c0.2,0,0.3,0,0.5,0.1C77.9,92.6,78.6,95.3,77.3,98.3z"/><path d="M57.8,79.3c-0.4-0.2-0.9-0.3-1.4-0.3c-2,0-4.3,1.9-5.6,4.9c-1.5,3.7-0.9,7.6,1.4,8.8c0.4,0.2,0.9,0.3,1.4,0.3  c2,0,4.3-1.9,5.6-4.9C60.7,84.4,60.1,80.5,57.8,79.3z M57.3,87.3c-1,2.4-2.7,3.7-3.7,3.7c-0.2,0-0.3,0-0.5-0.1  c-1-0.5-1.7-3.2-0.4-6.2c1-2.4,2.7-3.7,3.7-3.7c0.2,0,0.3,0,0.5,0.1C57.9,81.6,58.6,84.3,57.3,87.3z"/><path d="M57.8,101.3c-0.4-0.2-0.9-0.3-1.4-0.3c-2,0-4.3,1.9-5.6,4.9c-1.5,3.7-0.9,7.6,1.4,8.8c0.4,0.2,0.9,0.3,1.4,0.3  c2,0,4.3-1.9,5.6-4.9C60.7,106.4,60.1,102.5,57.8,101.3z M57.3,109.3c-1,2.4-2.7,3.7-3.7,3.7c-0.2,0-0.3,0-0.5-0.1  c-1-0.5-1.7-3.2-0.4-6.2c1-2.4,2.7-3.7,3.7-3.7c0.2,0,0.3,0,0.5,0.1C57.9,103.6,58.6,106.3,57.3,109.3z"/><path d="M69.9,46.4l1.8,0.9c0.6-0.8,1.1-1.7,1.5-2.7c1.5-3.8,0.8-7.5-1.6-8.3c-0.3-0.1-0.6-0.2-1-0.2c-2.2,0-4.6,2.2-5.9,5.5  c-0.3,0.7-0.5,1.4-0.6,2.1l1.9,0.9c0.1-0.7,0.3-1.5,0.6-2.3c1-2.6,2.9-4.2,4.1-4.2c0.1,0,0.2,0,0.3,0c0.3,0.1,0.5,0.3,0.7,0.7  c0.5,1.2,0.4,3.1-0.3,5C71,44.8,70.4,45.7,69.9,46.4z"/><path d="M97.8,78.3c-0.5-1.5-2.3-2.3-4.5-2.3c-1.2,0-2.5,0.2-3.9,0.8c-0.5,0.2-1,0.4-1.5,0.7V63c0-0.2,0-0.3,0-0.5c0,0,0,0,0,0  c2.9-1.6,4.6-4.2,3.9-6.2c-0.5-1.5-2.3-2.3-4.5-2.3c-0.9,0-1.9,0.1-2.9,0.4l0,0c-1.1-1.2-2.3-2.2-3.7-2.9l-29.2-14  c1-3.5,0.3-6.7-1.9-7.4c-0.3-0.1-0.6-0.2-1-0.2c-2.2,0-4.6,2.2-5.9,5.5c-0.1,0.2-0.1,0.4-0.2,0.6c0,0,0,0,0,0  c-2.1,0.1-4.2,0.6-5.8,1.4L7.2,51.6C3.2,53.5,0,58.6,0,63v34c0,4.4,3.1,9.8,7,12L37,126c1.9,1.1,4.4,1.6,7,1.6s5-0.5,7-1.6L81,109  c3.8-2.2,7-7.6,7-12V86c0.2,0,0.4,0,0.6,0c1.2,0,2.5-0.2,3.9-0.8C96.3,83.8,98.7,80.7,97.8,78.3z M87.4,56c1.3,0,2.4,0.4,2.6,1  c0.3,0.7-0.6,2.2-2.3,3.4c0,0,0,0,0,0c-0.4-1.5-1-2.9-1.9-4.2c0,0,0,0,0,0C86.3,56.1,86.8,56,87.4,56z M85.1,55.3  C85.1,55.3,85.1,55.3,85.1,55.3C85.1,55.3,85.1,55.3,85.1,55.3z M51.2,37.4c-0.2-0.1-0.5-0.2-0.8-0.3C50.7,37.2,51,37.3,51.2,37.4z   M48.7,32c0.1,0,0.2,0,0.3,0c0.3,0.1,0.5,0.3,0.7,0.7c0.5,1,0.4,2.5,0,4.1c0,0,0,0,0,0c-1.5-0.5-3.2-0.8-5-0.8  C45.7,33.5,47.5,32,48.7,32z M8.9,55.2l29.6-14.1c1.4-0.7,3.4-1,5.5-1s4.1,0.4,5.5,1l29.6,14.1c0.6,0.3,1.2,0.7,1.7,1.2L43.9,76.8  L7.2,56.4C7.8,55.9,8.3,55.5,8.9,55.2z M8.9,105.5C6.4,104,4,100,4,97V63c0-1.1,0.3-2.2,0.9-3.4c0.1,0,0.1,0.1,0.2,0.1l37,20.6v43.2  c-1.1-0.2-2.2-0.5-3-0.9L8.9,105.5z M84,97c0,3-2.4,7-4.9,8.5L49,122.6c-0.8,0.5-1.8,0.8-3,0.9V80.2l37-20.4c0.1,0,0.1-0.1,0.2-0.1  c0.5,1.1,0.9,2.3,0.9,3.4V97z M88.6,84c-0.2,0-0.4,0-0.6,0v-4.1c0.6-0.5,1.3-0.9,2.2-1.2c1.1-0.4,2.1-0.6,3.1-0.6  c1.3,0,2.4,0.4,2.6,1c0.3,1-1.2,3.2-4.2,4.4C90.7,83.8,89.6,84,88.6,84z"/></svg>